<?xml version="1.0" encoding="UTF-8"?>
<svg width="800" height="600" viewBox="0 0 800 600" xmlns="http://www.w3.org/2000/svg">
  <!-- Definitions for gradients and filters -->
  <defs>
    <linearGradient id="greenGradient" x1="0%" y1="0%" x2="100%" y2="100%">
      <stop offset="0%" style="stop-color:#177038;stop-opacity:1" />
      <stop offset="100%" style="stop-color:#3a5b30;stop-opacity:1" />
    </linearGradient>
    <linearGradient id="turquoiseGradient" x1="0%" y1="0%" x2="100%" y2="100%">
      <stop offset="0%" style="stop-color:#8ed4cd;stop-opacity:1" />
      <stop offset="100%" style="stop-color:#6ab8af;stop-opacity:1" />
    </linearGradient>
    <linearGradient id="blueGradient" x1="0%" y1="0%" x2="100%" y2="100%">
      <stop offset="0%" style="stop-color:#64b5f6;stop-opacity:1" />
      <stop offset="100%" style="stop-color:#2196f3;stop-opacity:1" />
    </linearGradient>
    <linearGradient id="orangeGradient" x1="0%" y1="0%" x2="100%" y2="100%">
      <stop offset="0%" style="stop-color:#ffa726;stop-opacity:1" />
      <stop offset="100%" style="stop-color:#ff9800;stop-opacity:1" />
    </linearGradient>
    <linearGradient id="redGradient" x1="0%" y1="0%" x2="100%" y2="100%">
      <stop offset="0%" style="stop-color:#ef5350;stop-opacity:1" />
      <stop offset="100%" style="stop-color:#e53935;stop-opacity:1" />
    </linearGradient>
    <linearGradient id="purpleGradient" x1="0%" y1="0%" x2="100%" y2="100%">
      <stop offset="0%" style="stop-color:#ab47bc;stop-opacity:1" />
      <stop offset="100%" style="stop-color:#8e24aa;stop-opacity:1" />
    </linearGradient>
    <filter id="shadow" x="-20%" y="-20%" width="140%" height="140%">
      <feDropShadow dx="3" dy="3" stdDeviation="5" flood-opacity="0.3" />
    </filter>
  </defs>
  
  <!-- Background -->
  <rect x="0" y="0" width="800" height="600" fill="transparent" />

  <!-- Central HQ Building -->
  <g transform="translate(400, 300)">
    <!-- Main Building -->
    <rect x="-60" y="-100" width="120" height="150" rx="5" ry="5" fill="url(#greenGradient)" filter="url(#shadow)" />
    
    <!-- Building Windows -->
    <g fill="#ffffff" opacity="0.9">
      <rect x="-50" y="-90" width="20" height="20" rx="2" ry="2" />
      <rect x="-20" y="-90" width="20" height="20" rx="2" ry="2" />
      <rect x="10" y="-90" width="20" height="20" rx="2" ry="2" />
      <rect x="40" y="-90" width="20" height="20" rx="2" ry="2" />
      
      <rect x="-50" y="-60" width="20" height="20" rx="2" ry="2" />
      <rect x="-20" y="-60" width="20" height="20" rx="2" ry="2" />
      <rect x="10" y="-60" width="20" height="20" rx="2" ry="2" />
      <rect x="40" y="-60" width="20" height="20" rx="2" ry="2" />
      
      <rect x="-50" y="-30" width="20" height="20" rx="2" ry="2" />
      <rect x="-20" y="-30" width="20" height="20" rx="2" ry="2" />
      <rect x="10" y="-30" width="20" height="20" rx="2" ry="2" />
      <rect x="40" y="-30" width="20" height="20" rx="2" ry="2" />
    </g>
    
    <!-- Building Top -->
    <rect x="-70" y="-120" width="140" height="20" rx="3" ry="3" fill="#3a5b30" />
    
    <!-- Building Entrance -->
    <rect x="-20" y="30" width="40" height="20" rx="3" ry="3" fill="#ffffff" />
    
    <!-- Dashboard/Control Center in Building -->
    <rect x="-45" y="0" width="90" height="25" rx="3" ry="3" fill="url(#turquoiseGradient)" opacity="0.9" />
    
    <!-- Management Icon -->
    <g transform="translate(0, 0) scale(0.5)">
      <circle cx="0" cy="0" r="15" fill="#ffffff" />
      <rect x="-8" y="-5" width="16" height="10" rx="1" ry="1" fill="url(#greenGradient)" />
      <circle cx="0" cy="-15" r="5" fill="url(#greenGradient)" />
    </g>
    
    <!-- Antenna/Connectivity -->
    <line x1="0" y1="-120" x2="0" y2="-150" stroke="#607d8b" stroke-width="3" />
    <circle cx="0" cy="-150" r="5" fill="#607d8b" />
    <path d="M-10,-140 C-5,-145 5,-145 10,-140" stroke="#607d8b" stroke-width="2" fill="none" />
    <path d="M-15,-150 C-10,-155 10,-155 15,-150" stroke="#607d8b" stroke-width="2" fill="none" />
  </g>
  
  <!-- Branch 1 - Restaurant -->
  <g transform="translate(200, 180)">
    <!-- Restaurant Building -->
    <rect x="-40" y="-60" width="80" height="80" rx="5" ry="5" fill="url(#turquoiseGradient)" filter="url(#shadow)" />
    
    <!-- Restaurant Windows -->
    <g fill="#ffffff" opacity="0.9">
      <rect x="-30" y="-50" width="15" height="15" rx="2" ry="2" />
      <rect x="-10" y="-50" width="15" height="15" rx="2" ry="2" />
      <rect x="10" y="-50" width="15" height="15" rx="2" ry="2" />
      
      <rect x="-30" y="-30" width="15" height="15" rx="2" ry="2" />
      <rect x="-10" y="-30" width="15" height="15" rx="2" ry="2" />
      <rect x="10" y="-30" width="15" height="15" rx="2" ry="2" />
    </g>
    
    <!-- Restaurant Sign -->
    <rect x="-30" y="-70" width="60" height="10" rx="2" ry="2" fill="#3a5b30" />
    
    <!-- POS/Order System -->
    <rect x="-25" y="-10" width="50" height="20" rx="3" ry="3" fill="#ffffff" stroke="#ddd" stroke-width="1" />
    
    <!-- Tables -->
    <g fill="#f5f5f5" stroke="#ddd" stroke-width="1">
      <circle cx="-25" cy="5" r="5" />
      <circle cx="0" cy="5" r="5" />
      <circle cx="25" cy="5" r="5" />
    </g>
    
    <!-- Label -->
    <text x="0" y="30" font-family="Arial" font-size="12" fill="#3a5b30" text-anchor="middle">1</text>
  </g>
  
  <!-- Branch 2 - Cafe -->
  <g transform="translate(600, 180)">
    <!-- Cafe Building -->
    <rect x="-40" y="-60" width="80" height="80" rx="5" ry="5" fill="url(#turquoiseGradient)" filter="url(#shadow)" />
    
    <!-- Cafe Windows -->
    <g fill="#ffffff" opacity="0.9">
      <rect x="-30" y="-50" width="25" height="20" rx="3" ry="3" />
      <rect x="5" y="-50" width="25" height="20" rx="3" ry="3" />
      
      <rect x="-30" y="-25" width="25" height="20" rx="3" ry="3" />
      <rect x="5" y="-25" width="25" height="20" rx="3" ry="3" />
    </g>
    
    <!-- Cafe Awning -->
    <path d="M-45,-62 L45,-62 L40,-75 L-40,-75 Z" fill="#3a5b30" />
    
    <!-- Coffee Icons -->
    <g transform="translate(0, 0) scale(0.6)">
      <circle cx="-15" cy="0" r="8" fill="#f5f5f5" stroke="#ddd" stroke-width="1" />
      <path d="M-10,0 C-8,-5 -2,-5 0,0" stroke="#3a5b30" stroke-width="1" fill="none" />
      
      <circle cx="15" cy="0" r="8" fill="#f5f5f5" stroke="#ddd" stroke-width="1" />
      <path d="M20,0 C22,-5 28,-5 30,0" stroke="#3a5b30" stroke-width="1" fill="none" />
    </g>
    
    <!-- Label -->
    <text x="0" y="30" font-family="Arial" font-size="12" fill="#3a5b30" text-anchor="middle">2</text>
  </g>
  
  <!-- Branch 3 - Fast Food -->
  <g transform="translate(200, 420)">
    <!-- Fast Food Building -->
    <rect x="-40" y="-60" width="80" height="80" rx="5" ry="5" fill="url(#turquoiseGradient)" filter="url(#shadow)" />
    
    <!-- Fast Food Windows -->
    <rect x="-35" y="-40" width="70" height="30" rx="3" ry="3" fill="#ffffff" opacity="0.9" />
    
    <!-- Drive Thru Window -->
    <rect x="30" y="-20" width="10" height="20" rx="2" ry="2" fill="#ffffff" opacity="0.9" />
    
    <!-- Fast Food Sign -->
    <rect x="-20" y="-70" width="40" height="15" rx="7.5" ry="7.5" fill="#3a5b30" />
    
    <!-- Order Counter -->
    <rect x="-30" y="-5" width="60" height="15" rx="2" ry="2" fill="#f5f5f5" stroke="#ddd" stroke-width="1" />
    
    <!-- Label -->
    <text x="0" y="30" font-family="Arial" font-size="12" fill="#3a5b30" text-anchor="middle">3</text>
  </g>
  
  <!-- Branch 4 - Fine Dining -->
  <g transform="translate(600, 420)">
    <!-- Fine Dining Building -->
    <rect x="-40" y="-60" width="80" height="80" rx="5" ry="5" fill="url(#turquoiseGradient)" filter="url(#shadow)" />
    
    <!-- Fine Dining Windows -->
    <g fill="#ffffff" opacity="0.9">
      <rect x="-30" y="-50" width="15" height="30" rx="2" ry="2" />
      <rect x="-10" y="-50" width="15" height="30" rx="2" ry="2" />
      <rect x="10" y="-50" width="15" height="30" rx="2" ry="2" />
    </g>
    
    <!-- Fancy Entrance -->
    <path d="M-15,-10 L15,-10 L10,5 L-10,5 Z" fill="#3a5b30" />
    <rect x="-5" y="-10" width="10" height="15" fill="#f5f5f5" />
    
    <!-- Fancy Roof -->
    <path d="M-45,-60 L45,-60 L0,-85 Z" fill="#3a5b30" />
    
    <!-- Label -->
    <text x="0" y="30" font-family="Arial" font-size="12" fill="#3a5b30" text-anchor="middle">4</text>
  </g>
  
  <!-- Connection Lines Between HQ and Branches -->
  <line x1="400" y1="300" x2="200" y2="180" stroke="url(#greenGradient)" stroke-width="2" stroke-dasharray="5,3" />
  <line x1="400" y1="300" x2="600" y2="180" stroke="url(#greenGradient)" stroke-width="2" stroke-dasharray="5,3" />
  <line x1="400" y1="300" x2="200" y2="420" stroke="url(#greenGradient)" stroke-width="2" stroke-dasharray="5,3" />
  <line x1="400" y1="300" x2="600" y2="420" stroke="url(#greenGradient)" stroke-width="2" stroke-dasharray="5,3" />
  
  <!-- Data Flow Indicators -->
  <g>
    <circle cx="250" cy="220" r="4" fill="#fff">
      <animate attributeName="opacity" values="0.2;1;0.2" dur="2s" repeatCount="indefinite" />
      <animate attributeName="cx" values="200;300;400" dur="2s" repeatCount="indefinite" />
      <animate attributeName="cy" values="180;240;300" dur="2s" repeatCount="indefinite" />
    </circle>
    
    <circle cx="550" cy="220" r="4" fill="#fff">
      <animate attributeName="opacity" values="0.2;1;0.2" dur="2.3s" repeatCount="indefinite" />
      <animate attributeName="cx" values="600;500;400" dur="2.3s" repeatCount="indefinite" />
      <animate attributeName="cy" values="180;240;300" dur="2.3s" repeatCount="indefinite" />
    </circle>
    
    <circle cx="250" cy="380" r="4" fill="#fff">
      <animate attributeName="opacity" values="0.2;1;0.2" dur="1.8s" repeatCount="indefinite" />
      <animate attributeName="cx" values="200;300;400" dur="1.8s" repeatCount="indefinite" />
      <animate attributeName="cy" values="420;360;300" dur="1.8s" repeatCount="indefinite" />
    </circle>
    
    <circle cx="550" cy="380" r="4" fill="#fff">
      <animate attributeName="opacity" values="0.2;1;0.2" dur="2.2s" repeatCount="indefinite" />
      <animate attributeName="cx" values="600;500;400" dur="2.2s" repeatCount="indefinite" />
      <animate attributeName="cy" values="420;360;300" dur="2.2s" repeatCount="indefinite" />
    </circle>
  </g>
  
  <!-- Dashboard/Analytics Elements at HQ -->
  <g transform="translate(400, 230)">
    <!-- Analytics Panel -->
    <rect x="-50" y="-30" width="100" height="60" rx="5" ry="5" fill="#f5f5f5" opacity="0.9" filter="url(#shadow)" />
    
    <!-- Graph Elements -->
    <g transform="translate(-35, -15) scale(0.7)">
      <rect x="0" y="0" width="10" height="20" fill="url(#blueGradient)" />
      <rect x="15" y="-10" width="10" height="30" fill="url(#greenGradient)" />
      <rect x="30" y="-5" width="10" height="25" fill="url(#orangeGradient)" />
      <rect x="45" y="5" width="10" height="15" fill="url(#purpleGradient)" />
    </g>
    
    <!-- Line Graph -->
    <path d="M-35,15 L-25,10 L-15,20 L-5,5 L5,10 L15,5 L25,0 L35,5" 
          stroke="url(#turquoiseGradient)" stroke-width="2" fill="none" />
          
    <!-- Circular Progress -->
    <circle cx="25" cy="-10" r="10" fill="none" stroke="#ddd" stroke-width="2" />
    <path d="M25,-20 A10,10 0 1,1 15,-10" stroke="url(#greenGradient)" stroke-width="2" fill="none" />
  </g>
  
  <!-- Mobile Management Device -->
  <g transform="translate(400, 450)">
    <!-- Tablet/Device -->
    <rect x="-30" y="-40" width="60" height="80" rx="5" ry="5" fill="#424242" filter="url(#shadow)" />
    <rect x="-25" y="-35" width="50" height="70" rx="2" ry="2" fill="#f5f5f5" />
    
    <!-- Screen Content -->
    <rect x="-20" y="-30" width="40" height="10" rx="2" ry="2" fill="url(#greenGradient)" opacity="0.8" />
    
    <rect x="-20" y="-15" width="15" height="10" rx="1" ry="1" fill="url(#blueGradient)" opacity="0.6" />
    <rect x="0" y="-15" width="15" height="10" rx="1" ry="1" fill="url(#orangeGradient)" opacity="0.6" />
    
    <rect x="-20" y="0" width="15" height="10" rx="1" ry="1" fill="url(#redGradient)" opacity="0.6" />
    <rect x="0" y="0" width="15" height="10" rx="1" ry="1" fill="url(#purpleGradient)" opacity="0.6" />
    
    <rect x="-20" y="15" width="40" height="15" rx="2" ry="2" fill="url(#turquoiseGradient)" opacity="0.6" />
    
    <!-- Connection to HQ -->
    <line x1="0" y1="-40" x2="0" y2="-80" stroke="url(#turquoiseGradient)" stroke-width="2" stroke-dasharray="3,2" />
    <circle cx="0" cy="-60" r="3" fill="#fff">
      <animate attributeName="cy" values="-40;-80;-40" dur="2s" repeatCount="indefinite" />
      <animate attributeName="opacity" values="0.2;1;0.2" dur="2s" repeatCount="indefinite" />
    </circle>
  </g>
</svg>
