<?xml version="1.0" encoding="UTF-8"?>
<svg width="800" height="450" viewBox="0 0 800 450" xmlns="http://www.w3.org/2000/svg">
  <!-- Filtreler ve Gradientler -->
  <defs>
    <filter id="shadow" x="-10%" y="-10%" width="120%" height="120%">
      <feDropShadow dx="3" dy="3" stdDeviation="4" flood-opacity="0.2" flood-color="#333"/>
    </filter>
    <linearGradient id="cardGrad" x1="0%" y1="0%" x2="0%" y2="100%">
      <stop offset="0%" stop-color="#ffffff"/>
      <stop offset="100%" stop-color="#f9f9f9"/>
    </linearGradient>
    <linearGradient id="greenGrad" x1="0%" y1="0%" x2="100%" y2="100%">
      <stop offset="0%" stop-color="#65a154"/>
      <stop offset="100%" stop-color="#3c5d31"/>
    </linearGradient>
    <linearGradient id="blueGrad" x1="0%" y1="0%" x2="100%" y2="100%">
      <stop offset="0%" stop-color="#8ed4cd"/>
      <stop offset="100%" stop-color="#5bc0b5"/>
    </linearGradient>
    <linearGradient id="orderGrad" x1="0%" y1="0%" x2="0%" y2="100%">
      <stop offset="0%" stop-color="#f6f6f6"/>
      <stop offset="100%" stop-color="#eeeeee"/>
    </linearGradient>
  </defs>
  
  <!-- Arka Plan kaldırıldı - sayfa ile bütünleşik görünüm -->
  
  <!-- Bağlantı Çizgileri -->
  <path d="M180,225 C230,225 230,140 280,140" stroke="#e0e0e0" stroke-width="3" stroke-linecap="round" fill="none"/>
  <path d="M380,140 C430,140 430,225 480,225" stroke="#e0e0e0" stroke-width="3" stroke-linecap="round" fill="none"/>
  <path d="M580,225 C630,225 630,140 680,140" stroke="#e0e0e0" stroke-width="3" stroke-linecap="round" fill="none"/>
  
  <!-- İş Akışı Adım 1: Sipariş Kanalları -->
  <g transform="translate(180, 225)">
    <!-- Adım Kartı -->
    <rect x="-80" y="-100" width="160" height="200" rx="15" ry="15" fill="url(#cardGrad)" stroke="#e0e0e0" stroke-width="1" filter="url(#shadow)"/>
    
    <!-- İkon Bölgesi -->
    <circle cx="0" cy="-60" r="40" fill="url(#greenGrad)" filter="url(#shadow)"/>
    <g transform="translate(0, -60) scale(0.7)">
      <!-- Sipariş Kanalları İkonu -->
      <path d="M-15,-15 L15,-15 L15,0 L-15,0 Z" fill="#ffffff" stroke="#ffffff" stroke-width="2"/>
      <path d="M-10,-10 L10,-10" stroke="#ffffff" stroke-width="2"/>
      <path d="M-10,-5 L5,-5" stroke="#ffffff" stroke-width="2"/>
      <path d="M-15,5 L15,5 L15,20 L-15,20 Z" fill="#ffffff" stroke="#ffffff" stroke-width="2"/>
      <path d="M-10,10 L10,10" stroke="#ffffff" stroke-width="2"/>
      <path d="M-10,15 L5,15" stroke="#ffffff" stroke-width="2"/>
    </g>
    
    <!-- Metin Bölgesi -->
    <text x="0" y="0" font-family="Arial" font-size="16" font-weight="bold" text-anchor="middle" fill="#333">Sipariş Kanalları</text>
    <text x="0" y="25" font-family="Arial" font-size="12" text-anchor="middle" fill="#666" width="140">
      <tspan x="0" dy="0">Getir, Yemeksepeti,</tspan>
      <tspan x="0" dy="18">web sitesi, kendi</tspan>
      <tspan x="0" dy="18">uygulamanız</tspan>
    </text>
    
    <!-- Adım Numarası -->
    <g transform="translate(55, 85)">
      <circle cx="0" cy="0" r="15" fill="#177038"/>
      <text x="0" y="5" font-family="Arial" font-size="14" font-weight="bold" text-anchor="middle" fill="white">1</text>
    </g>
  </g>
  
  <!-- İş Akışı Adım 2: Merkezi İşleme Sistemi -->
  <g transform="translate(330, 140)">
    <!-- Adım Kartı -->
    <rect x="-80" y="-100" width="160" height="200" rx="15" ry="15" fill="url(#cardGrad)" stroke="#e0e0e0" stroke-width="1" filter="url(#shadow)"/>
    
    <!-- İkon Bölgesi -->
    <circle cx="0" cy="-60" r="40" fill="url(#blueGrad)" filter="url(#shadow)"/>
    <g transform="translate(0, -60) scale(0.7)">
      <!-- Merkezi Sistem İkonu -->
      <rect x="-25" y="-25" width="50" height="50" rx="5" ry="5" fill="#ffffff" stroke="#ffffff" stroke-width="2"/>
      <path d="M-20,-15 L20,-15" stroke="#ffffff" stroke-width="2"/>
      <path d="M-20,-5 L10,-5" stroke="#ffffff" stroke-width="2"/>
      <path d="M-20,5 L15,5" stroke="#ffffff" stroke-width="2"/>
      <path d="M-20,15 L20,15" stroke="#ffffff" stroke-width="2"/>
      <circle cx="-15" cy="-20" r="2" fill="#ffffff"/>
    </g>
    
    <!-- Metin Bölgesi -->
    <text x="0" y="0" font-family="Arial" font-size="16" font-weight="bold" text-anchor="middle" fill="#333">Merkezi İşleme</text>
    <text x="0" y="25" font-family="Arial" font-size="12" text-anchor="middle" fill="#666" width="140">
      <tspan x="0" dy="0">Bulut tabanlı siparişlerin</tspan>
      <tspan x="0" dy="18">tek merkezde toplanması</tspan>
      <tspan x="0" dy="18">ve işlenmesi</tspan>
    </text>
    
    <!-- Adım Numarası -->
    <g transform="translate(55, 85)">
      <circle cx="0" cy="0" r="15" fill="#8ed4cd"/>
      <text x="0" y="5" font-family="Arial" font-size="14" font-weight="bold" text-anchor="middle" fill="white">2</text>
    </g>
  </g>
  
  <!-- İş Akışı Adım 3: Mutfak İşlemleri -->
  <g transform="translate(480, 225)">
    <!-- Adım Kartı -->
    <rect x="-80" y="-100" width="160" height="200" rx="15" ry="15" fill="url(#cardGrad)" stroke="#e0e0e0" stroke-width="1" filter="url(#shadow)"/>
    
    <!-- İkon Bölgesi -->
    <circle cx="0" cy="-60" r="40" fill="url(#greenGrad)" filter="url(#shadow)"/>
    <g transform="translate(0, -60) scale(0.7)">
      <!-- Mutfak İkonu -->
      <path d="M-25,-5 L25,-5 L20,25 L-20,25 Z" fill="#ffffff" stroke="#ffffff" stroke-width="2"/>
      <path d="M-15,-20 L-15,-5" stroke="#ffffff" stroke-width="3" stroke-linecap="round"/>
      <path d="M0,-25 L0,-5" stroke="#ffffff" stroke-width="3" stroke-linecap="round"/>
      <path d="M15,-20 L15,-5" stroke="#ffffff" stroke-width="3" stroke-linecap="round"/>
    </g>
    
    <!-- Metin Bölgesi -->
    <text x="0" y="0" font-family="Arial" font-size="16" font-weight="bold" text-anchor="middle" fill="#333">Mutfak İşlemleri</text>
    <text x="0" y="25" font-family="Arial" font-size="12" text-anchor="middle" fill="#666" width="140">
      <tspan x="0" dy="0">Sipariş bildirimleri,</tspan>
      <tspan x="0" dy="18">hazırlık süreçleri,</tspan>
      <tspan x="0" dy="18">ve durum takibi</tspan>
    </text>
    
    <!-- Adım Numarası -->
    <g transform="translate(55, 85)">
      <circle cx="0" cy="0" r="15" fill="#177038"/>
      <text x="0" y="5" font-family="Arial" font-size="14" font-weight="bold" text-anchor="middle" fill="white">3</text>
    </g>
  </g>
  
  <!-- İş Akışı Adım 4: Teslimat ve Raporlama -->
  <g transform="translate(630, 140)">
    <!-- Adım Kartı -->
    <rect x="-80" y="-100" width="160" height="200" rx="15" ry="15" fill="url(#cardGrad)" stroke="#e0e0e0" stroke-width="1" filter="url(#shadow)"/>
    
    <!-- İkon Bölgesi -->
    <circle cx="0" cy="-60" r="40" fill="url(#blueGrad)" filter="url(#shadow)"/>
    <g transform="translate(0, -60) scale(0.7)">
      <!-- Teslimat ve Raporlama İkonu -->
      <path d="M-20,-15 L10,-15 L20,0 L20,15 L-20,15 Z" fill="#ffffff" stroke="#ffffff" stroke-width="2"/>
      <rect x="-15" y="-25" width="10" height="10" fill="#ffffff"/>
      <circle cx="-10" cy="15" r="7" fill="#ffffff"/>
      <circle cx="10" cy="15" r="7" fill="#ffffff"/>
    </g>
    
    <!-- Metin Bölgesi -->
    <text x="0" y="0" font-family="Arial" font-size="16" font-weight="bold" text-anchor="middle" fill="#333">Teslimat ve Analiz</text>
    <text x="0" y="25" font-family="Arial" font-size="12" text-anchor="middle" fill="#666" width="140">
      <tspan x="0" dy="0">Kurye takibi, teslimat</tspan>
      <tspan x="0" dy="18">bildirimleri ve satış</tspan>
      <tspan x="0" dy="18">analizleri</tspan>
    </text>
    
    <!-- Adım Numarası -->
    <g transform="translate(55, 85)">
      <circle cx="0" cy="0" r="15" fill="#8ed4cd"/>
      <text x="0" y="5" font-family="Arial" font-size="14" font-weight="bold" text-anchor="middle" fill="white">4</text>
    </g>
  </g>
  
  <!-- Sipariş Yaşam Döngüsü kısmı kaldırıldı -->
</svg>
