<?xml version="1.0" encoding="UTF-8"?>
<svg width="800" height="600" viewBox="0 0 800 600" xmlns="http://www.w3.org/2000/svg">
  <!-- Definitions for gradients and filters -->
  <defs>
    <linearGradient id="greenGradient" x1="0%" y1="0%" x2="100%" y2="100%">
      <stop offset="0%" style="stop-color:#507b41;stop-opacity:1" />
      <stop offset="100%" style="stop-color:#3a5b30;stop-opacity:1" />
    </linearGradient>
    <linearGradient id="turquoiseGradient" x1="0%" y1="0%" x2="100%" y2="100%">
      <stop offset="0%" style="stop-color:#8ed4cd;stop-opacity:1" />
      <stop offset="100%" style="stop-color:#6ab8af;stop-opacity:1" />
    </linearGradient>
    <linearGradient id="blueGradient" x1="0%" y1="0%" x2="100%" y2="100%">
      <stop offset="0%" style="stop-color:#64b5f6;stop-opacity:1" />
      <stop offset="100%" style="stop-color:#2196f3;stop-opacity:1" />
    </linearGradient>
    <linearGradient id="purpleGradient" x1="0%" y1="0%" x2="100%" y2="100%">
      <stop offset="0%" style="stop-color:#9575cd;stop-opacity:1" />
      <stop offset="100%" style="stop-color:#673ab7;stop-opacity:1" />
    </linearGradient>
    <linearGradient id="orangeGradient" x1="0%" y1="0%" x2="100%" y2="100%">
      <stop offset="0%" style="stop-color:#ffb74d;stop-opacity:1" />
      <stop offset="100%" style="stop-color:#ff9800;stop-opacity:1" />
    </linearGradient>
    <linearGradient id="redGradient" x1="0%" y1="0%" x2="100%" y2="100%">
      <stop offset="0%" style="stop-color:#ef5350;stop-opacity:1" />
      <stop offset="100%" style="stop-color:#e53935;stop-opacity:1" />
    </linearGradient>
    <filter id="shadow" x="-20%" y="-20%" width="140%" height="140%">
      <feDropShadow dx="3" dy="3" stdDeviation="5" flood-opacity="0.3" />
    </filter>
  </defs>

  <!-- Background -->
  <rect x="0" y="0" width="800" height="600" fill="transparent" />
  
  <!-- Central Platform -->
  <rect x="350" y="275" width="100" height="100" rx="10" ry="10" fill="url(#greenGradient)" filter="url(#shadow)" />
  
  <!-- Platform Icons -->
  <path d="M380,310 L420,310 L420,320 L410,335 L390,335 L380,320 Z" fill="#fff" stroke="#fff" stroke-width="1" />
  <rect x="390" y="295" width="20" height="10" rx="2" ry="2" fill="#fff" />
  <rect x="380" y="325" width="40" height="10" rx="2" ry="2" fill="#fff" opacity="0.7" />
  
  <!-- Left Integration Platforms -->
  <!-- POS System -->
  <g transform="translate(200, 200)">
    <rect x="-50" y="-50" width="100" height="100" rx="10" ry="10" fill="url(#turquoiseGradient)" filter="url(#shadow)" />
    <!-- POS Screen -->
    <rect x="-35" y="-35" width="70" height="40" rx="3" ry="3" fill="#fff" />
    <!-- Receipt -->
    <rect x="-35" y="10" width="30" height="25" fill="#fff" />
    <line x1="-30" y1="15" x2="-10" y2="15" stroke="#666" stroke-width="1" />
    <line x1="-30" y1="20" x2="-15" y2="20" stroke="#666" stroke-width="1" />
    <line x1="-30" y1="25" x2="-20" y2="25" stroke="#666" stroke-width="1" />
    <!-- Card Reader -->
    <rect x="0" y="10" width="35" height="25" rx="3" ry="3" fill="#444" />
    <rect x="5" y="15" width="25" height="5" rx="1" ry="1" fill="#ccc" />
  </g>
  
  <!-- Financial Software -->
  <g transform="translate(200, 400)">
    <rect x="-50" y="-50" width="100" height="100" rx="10" ry="10" fill="url(#blueGradient)" filter="url(#shadow)" />
    <!-- Charts -->
    <rect x="-30" y="-30" width="60" height="60" rx="3" ry="3" fill="#fff" />
    <polyline points="-25,-10 -15,0 -5,-20 5,-5 15,-15 25,5" stroke="#2196f3" stroke-width="3" fill="none" />
    <polyline points="-25,15 -15,25 -5,5 5,20 15,10 25,30" stroke="#507b41" stroke-width="3" fill="none" />
  </g>
  
  <!-- Right Integration Platforms -->
  <!-- Online Ordering System -->
  <g transform="translate(600, 200)">
    <rect x="-50" y="-50" width="100" height="100" rx="10" ry="10" fill="url(#orangeGradient)" filter="url(#shadow)" />
    <!-- Mobile Device -->
    <rect x="-20" y="-35" width="40" height="70" rx="5" ry="5" fill="#fff" />
    <rect x="-15" y="-30" width="30" height="50" rx="2" ry="2" fill="#f5f5f5" />
    <circle cx="0" cy="25" r="5" fill="#ddd" />
    <!-- App Interface -->
    <rect x="-10" y="-25" width="20" height="5" rx="1" ry="1" fill="#ff9800" />
    <rect x="-10" y="-15" width="20" height="5" rx="1" ry="1" fill="#ddd" />
    <rect x="-10" y="-5" width="20" height="5" rx="1" ry="1" fill="#ddd" />
    <rect x="-10" y="5" width="20" height="5" rx="1" ry="1" fill="#ddd" />
  </g>
  
  <!-- Inventory System -->
  <g transform="translate(600, 400)">
    <rect x="-50" y="-50" width="100" height="100" rx="10" ry="10" fill="url(#purpleGradient)" filter="url(#shadow)" />
    <!-- Inventory Boxes -->
    <rect x="-35" y="-25" width="25" height="25" fill="#fff" stroke="#673ab7" stroke-width="2" />
    <rect x="-5" y="-25" width="25" height="25" fill="#fff" stroke="#673ab7" stroke-width="2" />
    <rect x="-35" y="5" width="25" height="25" fill="#fff" stroke="#673ab7" stroke-width="2" />
    <rect x="-5" y="5" width="25" height="25" fill="#fff" stroke="#673ab7" stroke-width="2" />
    <line x1="-28" y1="-18" x2="-17" y2="-18" stroke="#673ab7" stroke-width="2" />
    <line x1="-28" y1="-12" x2="-22" y2="-12" stroke="#673ab7" stroke-width="2" />
    <circle cx="7" cy="-13" r="7" fill="#673ab7" />
    <rect x="3" y="-15" width="8" height="2" fill="#fff" />
    <rect x="6" y="-18" width="2" height="8" fill="#fff" />
  </g>
  
  <!-- Top Platform - CRM -->
  <g transform="translate(400, 100)">
    <rect x="-60" y="-40" width="120" height="80" rx="10" ry="10" fill="url(#redGradient)" filter="url(#shadow)" />
    <!-- People Icons -->
    <circle cx="-30" cy="-10" r="10" fill="#fff" />
    <circle cx="0" cy="-10" r="10" fill="#fff" />
    <circle cx="30" cy="-10" r="10" fill="#fff" />
    <path d="M-30,0 L-30,15 M-35,5 L-25,5" stroke="#fff" stroke-width="2" />
    <path d="M0,0 L0,15 M-5,5 L5,5" stroke="#fff" stroke-width="2" />
    <path d="M30,0 L30,15 M25,5 L35,5" stroke="#fff" stroke-width="2" />
    <!-- Connection Lines -->
    <line x1="-20" y1="-10" x2="-10" y2="-10" stroke="#fff" stroke-width="1" />
    <line x1="10" y1="-10" x2="20" y2="-10" stroke="#fff" stroke-width="1" />
  </g>
  
  <!-- Bottom Platform - Analytics -->
  <g transform="translate(400, 500)">
    <rect x="-60" y="-40" width="120" height="80" rx="10" ry="10" fill="#607d8b" filter="url(#shadow)" />
    <!-- Bar Chart -->
    <rect x="-45" y="-20" width="15" height="30" fill="#fff" opacity="0.8" />
    <rect x="-25" y="-25" width="15" height="35" fill="#fff" opacity="0.8" />
    <rect x="-5" y="-15" width="15" height="25" fill="#fff" opacity="0.8" />
    <rect x="15" y="-30" width="15" height="40" fill="#fff" opacity="0.8" />
    <rect x="35" y="-10" width="15" height="20" fill="#fff" opacity="0.8" />
    <!-- Base Line -->
    <line x1="-50" y1="10" x2="50" y2="10" stroke="#fff" stroke-width="2" />
  </g>
  
  <!-- Integration Lines - using curved paths -->
  <!-- Central to POS -->
  <path d="M350,325 C300,325 250,250 250,250" stroke="url(#turquoiseGradient)" stroke-width="3" fill="none" stroke-dasharray="5,5" />
  
  <!-- Central to Financial -->
  <path d="M375,375 C375,400 250,400 250,400" stroke="url(#blueGradient)" stroke-width="3" fill="none" stroke-dasharray="5,5" />
  
  <!-- Central to Online Ordering -->
  <path d="M450,325 C500,325 550,250 550,250" stroke="url(#orangeGradient)" stroke-width="3" fill="none" stroke-dasharray="5,5" />
  
  <!-- Central to Inventory -->
  <path d="M425,375 C425,400 550,400 550,400" stroke="url(#purpleGradient)" stroke-width="3" fill="none" stroke-dasharray="5,5" />
  
  <!-- Central to CRM -->
  <path d="M400,275 C400,200 400,140 400,140" stroke="url(#redGradient)" stroke-width="3" fill="none" stroke-dasharray="5,5" />
  
  <!-- Central to Analytics -->
  <path d="M400,375 C400,430 400,460 400,460" stroke="#607d8b" stroke-width="3" fill="none" stroke-dasharray="5,5" />
  
  <!-- Data Flow Indicators -->
  <circle cx="300" cy="285" r="5" fill="#fff">
    <animate attributeName="opacity" values="0.3;1;0.3" dur="2s" repeatCount="indefinite" />
  </circle>
  <circle cx="310" cy="380" r="5" fill="#fff">
    <animate attributeName="opacity" values="0.3;1;0.3" dur="2.5s" repeatCount="indefinite" />
  </circle>
  <circle cx="500" cy="285" r="5" fill="#fff">
    <animate attributeName="opacity" values="0.3;1;0.3" dur="1.8s" repeatCount="indefinite" />
  </circle>
  <circle cx="490" cy="380" r="5" fill="#fff">
    <animate attributeName="opacity" values="0.3;1;0.3" dur="2.2s" repeatCount="indefinite" />
  </circle>
  <circle cx="400" cy="200" r="5" fill="#fff">
    <animate attributeName="opacity" values="0.3;1;0.3" dur="2.3s" repeatCount="indefinite" />
  </circle>
  <circle cx="400" cy="420" r="5" fill="#fff">
    <animate attributeName="opacity" values="0.3;1;0.3" dur="1.9s" repeatCount="indefinite" />
  </circle>
</svg>
