<?xml version="1.0" encoding="UTF-8"?>
<svg width="800" height="600" viewBox="0 0 800 600" xmlns="http://www.w3.org/2000/svg">
  <!-- Definitions for gradients and filters -->
  <defs>
    <linearGradient id="greenGradient" x1="0%" y1="0%" x2="100%" y2="100%">
      <stop offset="0%" style="stop-color:#177038;stop-opacity:1" />
      <stop offset="100%" style="stop-color:#3a5b30;stop-opacity:1" />
    </linearGradient>
    <linearGradient id="turquoiseGradient" x1="0%" y1="0%" x2="100%" y2="100%">
      <stop offset="0%" style="stop-color:#8ed4cd;stop-opacity:1" />
      <stop offset="100%" style="stop-color:#6ab8af;stop-opacity:1" />
    </linearGradient>
    <linearGradient id="orangeGradient" x1="0%" y1="0%" x2="100%" y2="100%">
      <stop offset="0%" style="stop-color:#ff9800;stop-opacity:1" />
      <stop offset="100%" style="stop-color:#f57c00;stop-opacity:1" />
    </linearGradient>
    <linearGradient id="redGradient" x1="0%" y1="0%" x2="100%" y2="100%">
      <stop offset="0%" style="stop-color:#ef5350;stop-opacity:1" />
      <stop offset="100%" style="stop-color:#e53935;stop-opacity:1" />
    </linearGradient>
    <filter id="shadow" x="-20%" y="-20%" width="140%" height="140%">
      <feDropShadow dx="3" dy="3" stdDeviation="5" flood-opacity="0.3" />
    </filter>
  </defs>
  
  <!-- Background -->
  <rect x="0" y="0" width="800" height="600" fill="transparent" />
  
  <!-- Kitchen Counter Base -->
  <rect x="100" y="350" width="600" height="50" rx="5" ry="5" fill="#e0e0e0" filter="url(#shadow)" />
  <rect x="100" y="400" width="600" height="20" fill="#bdbdbd" />
  
  <!-- Kitchen Display System (KDS) Screen -->
  <g transform="translate(400, 220)">
    <!-- Screen body -->
    <rect x="-150" y="-100" width="300" height="200" rx="10" ry="10" fill="#424242" filter="url(#shadow)" />
    <!-- Screen display -->
    <rect x="-140" y="-90" width="280" height="160" rx="5" ry="5" fill="#f5f5f5" />
    <!-- Screen stand -->
    <rect x="-30" y="100" width="60" height="30" rx="5" ry="5" fill="#616161" />
    <rect x="-50" y="130" width="100" height="10" rx="2" ry="2" fill="#424242" />
    
    <!-- Order items on screen -->
    <rect x="-130" y="-80" width="260" height="40" rx="3" ry="3" fill="#fff" stroke="#eee" stroke-width="1" />
    <rect x="-120" y="-70" width="20" height="20" rx="10" ry="10" fill="url(#redGradient)" />
    <line x1="-90" y1="-65" x2="-20" y2="-65" stroke="#616161" stroke-width="2" />
    <line x1="-90" y1="-55" x2="-50" y2="-55" stroke="#9e9e9e" stroke-width="2" />
    <rect x="60" y="-70" width="40" height="20" rx="3" ry="3" fill="url(#orangeGradient)" opacity="0.8" />
    
    <rect x="-130" y="-30" width="260" height="40" rx="3" ry="3" fill="#fff" stroke="#eee" stroke-width="1" />
    <rect x="-120" y="-20" width="20" height="20" rx="10" ry="10" fill="url(#orangeGradient)" />
    <line x1="-90" y1="-15" x2="-20" y2="-15" stroke="#616161" stroke-width="2" />
    <line x1="-90" y1="-5" x2="-50" y2="-5" stroke="#9e9e9e" stroke-width="2" />
    <rect x="60" y="-20" width="40" height="20" rx="3" ry="3" fill="url(#greenGradient)" opacity="0.8" />
    
    <rect x="-130" y="20" width="260" height="40" rx="3" ry="3" fill="#fff" stroke="#eee" stroke-width="1" />
    <rect x="-120" y="30" width="20" height="20" rx="10" ry="10" fill="url(#greenGradient)" />
    <line x1="-90" y1="35" x2="-20" y2="35" stroke="#616161" stroke-width="2" />
    <line x1="-90" y1="45" x2="-50" y2="45" stroke="#9e9e9e" stroke-width="2" />
    <rect x="60" y="30" width="40" height="20" rx="3" ry="3" fill="url(#turquoiseGradient)" opacity="0.8" />
  </g>
  
  <!-- Tablet/POS Device on Left -->
  <g transform="translate(180, 300)">
    <!-- Tablet body -->
    <rect x="-60" y="-80" width="120" height="80" rx="5" ry="5" fill="#424242" filter="url(#shadow)" />
    <!-- Tablet screen -->
    <rect x="-55" y="-75" width="110" height="70" rx="2" ry="2" fill="#f5f5f5" />
    <!-- Tablet stand -->
    <path d="M-20,0 L20,0 L10,-20 L-10,-20 Z" fill="#616161" />
    <rect x="-30" y="0" width="60" height="10" rx="2" ry="2" fill="#424242" />
    
    <!-- POS interface elements -->
    <rect x="-45" y="-65" width="90" height="15" rx="2" ry="2" fill="#e0e0e0" />
    <rect x="-45" y="-45" width="40" height="30" rx="2" ry="2" fill="url(#greenGradient)" opacity="0.8" />
    <rect x="5" y="-45" width="40" height="30" rx="2" ry="2" fill="url(#turquoiseGradient)" opacity="0.8" />
  </g>
  
  <!-- Printed Order/Receipt on Right -->
  <g transform="translate(620, 300)">
    <!-- Receipt printer -->
    <rect x="-40" y="-50" width="80" height="50" rx="5" ry="5" fill="#616161" filter="url(#shadow)" />
    <rect x="-35" y="-45" width="70" height="10" rx="2" ry="2" fill="#424242" />
    <rect x="-20" y="-40" width="40" height="5" rx="1" ry="1" fill="#8ed4cd" />
    
    <!-- Printed receipt -->
    <rect x="-30" y="0" width="60" height="100" fill="#f5f5f5" />
    <path d="M-30,0 C-25,-10 -15,-10 -10,0 C-5,-10 5,-10 10,0 C15,-10 25,-10 30,0" fill="#f5f5f5" />
    
    <!-- Receipt lines -->
    <line x1="-20" y1="15" x2="20" y2="15" stroke="#9e9e9e" stroke-width="1" />
    <line x1="-20" y1="25" x2="20" y2="25" stroke="#9e9e9e" stroke-width="1" />
    <line x1="-20" y1="35" x2="20" y2="35" stroke="#9e9e9e" stroke-width="1" />
    <line x1="-20" y1="55" x2="20" y2="55" stroke="#9e9e9e" stroke-width="1" />
    <line x1="-20" y1="65" x2="10" y2="65" stroke="#9e9e9e" stroke-width="1" />
    <line x1="-20" y1="80" x2="20" y2="80" stroke="#9e9e9e" stroke-width="2" />
  </g>
  
  <!-- Kitchen Items on Counter -->
  <!-- Chef's knife -->
  <g transform="translate(250, 350)">
    <rect x="-40" y="-10" width="80" height="5" rx="2" ry="2" fill="#e0e0e0" />
    <path d="M-35,-10 L35,-10 L25,-30 L-25,-30 Z" fill="#f5f5f5" stroke="#bdbdbd" stroke-width="1" />
  </g>
  
  <!-- Plate with food -->
  <g transform="translate(350, 350)">
    <circle cx="0" cy="-15" r="25" fill="#f5f5f5" stroke="#e0e0e0" stroke-width="1" />
    <circle cx="0" cy="-15" r="15" fill="url(#turquoiseGradient)" opacity="0.3" />
    <path d="M-10,-20 C-5,-25 5,-25 10,-20" stroke="#177038" stroke-width="3" stroke-linecap="round" />
    <path d="M-8,-10 C-3,-15 3,-15 8,-10" stroke="#177038" stroke-width="3" stroke-linecap="round" />
  </g>
  
  <!-- Timer/Clock -->
  <g transform="translate(450, 350)">
    <circle cx="0" cy="-20" r="20" fill="#fff" stroke="#ddd" stroke-width="2" />
    <circle cx="0" cy="-20" r="18" fill="transparent" stroke="url(#orangeGradient)" stroke-width="2" stroke-dasharray="28 85" />
    <circle cx="0" cy="-20" r="3" fill="#616161" />
    <line x1="0" y1="-20" x2="0" y2="-35" stroke="#616161" stroke-width="2" stroke-linecap="round" />
    <line x1="0" y1="-20" x2="10" y2="-10" stroke="#616161" stroke-width="2" stroke-linecap="round" />
  </g>
  
  <!-- Mobile device with order app -->
  <g transform="translate(550, 350)">
    <rect x="-15" y="-40" width="30" height="50" rx="3" ry="3" fill="#424242" filter="url(#shadow)" />
    <rect x="-12" y="-37" width="24" height="40" rx="1" ry="1" fill="#f5f5f5" />
    <circle cx="0" cy="7" r="3" fill="#e0e0e0" />
    
    <!-- App interface -->
    <rect x="-10" y="-35" width="20" height="5" rx="1" ry="1" fill="url(#greenGradient)" opacity="0.8" />
    <rect x="-10" y="-28" width="20" height="3" rx="1" ry="1" fill="#9e9e9e" />
    <rect x="-10" y="-23" width="20" height="3" rx="1" ry="1" fill="#9e9e9e" />
    <rect x="-10" y="-18" width="20" height="3" rx="1" ry="1" fill="#9e9e9e" />
    <rect x="-10" y="-10" width="8" height="8" rx="1" ry="1" fill="url(#turquoiseGradient)" opacity="0.8" />
    <rect x="2" y="-10" width="8" height="8" rx="1" ry="1" fill="url(#orangeGradient)" opacity="0.8" />
  </g>
  
  <!-- Connection lines between devices -->
  <path d="M180,300 C250,150 350,150 400,220" stroke="url(#turquoiseGradient)" stroke-width="2" stroke-dasharray="5,3" fill="none" />
  <path d="M400,220 C450,150 550,150 620,300" stroke="url(#turquoiseGradient)" stroke-width="2" stroke-dasharray="5,3" fill="none" />
  <path d="M550,350 C520,270 450,270 400,220" stroke="url(#turquoiseGradient)" stroke-width="2" stroke-dasharray="5,3" fill="none" />
  
  <!-- Status indicators -->
  <circle cx="250" cy="150" r="8" fill="url(#greenGradient)" opacity="0.8" />
  <circle cx="400" cy="120" r="8" fill="url(#orangeGradient)" opacity="0.8" />
  <circle cx="550" cy="150" r="8" fill="url(#turquoiseGradient)" opacity="0.8" />
</svg>
